<svg width="200" height="85" viewBox="0 0 200 85" fill="none" xmlns="http://www.w3.org/2000/svg">
<g clip-path="url(#clip0_2104_8349)">
<path d="M0.179688 84.5316V0.699219H199.642V44.2289C199.642 44.2289 93.5186 -8.80399 0.179688 84.5316Z" fill="#00854A"/>
<path d="M199.642 59.1066V84.0096H153.881C153.881 84.0096 180.669 72.703 199.642 59.1066Z" fill="#00854A"/>
<path d="M101.737 82.3367C101.737 82.3367 80.3742 85.3739 70.1944 64.837C70.1944 64.837 63.4198 52.7237 70.3617 38.9137C70.3617 38.9137 87.1488 33.3494 93.7561 32.519C93.7561 32.519 92.2268 41.773 102.908 41.1086C102.908 41.1086 113.925 39.59 120.365 29.9919L122.575 32.0088C122.575 32.0088 112.061 47.6695 100.196 47.1594C100.196 47.1594 98.4518 46.839 98.3562 47.8712C98.3562 47.8712 97.9141 48.8559 99.8975 49.0102C99.8975 49.0102 107.58 50.3627 106.565 62.476C106.565 62.476 106.983 76.191 99.5271 78.9672C99.5271 78.9672 102.932 81.6604 101.737 82.3248V82.3367Z" fill="#ED1C24"/>
<path d="M123.64 33.9071C123.64 33.9071 112.576 46.1509 118.681 75.1945C118.681 75.1945 140.296 59.2015 123.64 33.9071Z" fill="#ED1C24"/>
<path d="M23.5388 19.0769C22.2364 19.3972 19.2135 19.7768 15.4379 19.7768C4.57707 19.7887 -0.548686 16.2413 0.0487213 11.555C0.76561 5.97879 8.80671 2.8941 18.3055 2.8941C21.9855 2.8941 24.7336 3.28562 25.9404 3.61782L24.0764 6.53641C22.7144 6.21608 20.7549 5.93133 18.186 5.93133C12.5943 5.93133 7.99424 7.6991 7.51631 11.3651C7.09813 14.6396 10.5511 16.704 16.8478 16.704C19.0343 16.704 21.4001 16.4905 22.8816 16.1701L23.5268 19.0769H23.5388Z" fill="white"/>
<path d="M37.4108 3.15509L36.5983 9.46684H48.2955L49.108 3.15509H56.1933L54.0904 19.5158H47.0051L47.8774 12.6939H36.1801L35.3079 19.5158H28.2227L30.3255 3.15509H37.4108Z" fill="white"/>
<path d="M68.0823 15.3159L65.3581 19.5158H57.998L69.6953 3.15509H78.967L86.6497 19.5158H79.0148L77.127 15.3159H68.0942H68.0823ZM76.4101 12.5515L74.8927 9.07532C74.5104 8.10246 74.1041 6.86858 73.7576 5.91945H73.6143C73.0647 6.89231 72.3956 8.12618 71.8101 9.07532L69.4563 12.5515H76.3982H76.4101Z" fill="white"/>
<path d="M90.8303 19.5158L92.9332 3.15509H101.225L106.972 9.1465C108.609 10.8668 110.162 12.9075 111.369 14.7583H111.465C111.321 12.599 111.465 10.3922 111.787 7.91263L112.397 3.15509H118.92L116.818 19.5158H109.362L103.471 13.2041C101.835 11.4363 100.006 9.3482 98.7639 7.4262H98.5727C98.5249 9.60921 98.3218 11.9227 97.9753 14.5922L97.342 19.5158H90.8184H90.8303Z" fill="white"/>
<path d="M122.971 19.5158L125.074 3.15509H133.366L139.113 9.1465C140.762 10.8668 142.315 12.9075 143.51 14.7583H143.605C143.462 12.599 143.605 10.3922 143.928 7.91263L144.537 3.15509H151.061L148.958 19.5158H141.503L135.612 13.2041C133.975 11.4363 132.147 9.3482 130.904 7.4262H130.713C130.666 9.60921 130.462 11.9227 130.116 14.5922L129.483 19.5158H122.959H122.971Z" fill="white"/>
<path d="M174.684 12.599H163.13L162.628 16.4786H175.532L175.138 19.5158H155.148L157.251 3.15509H176.583L176.189 6.19232H163.942L163.512 9.59734H175.066L174.684 12.6108V12.599Z" fill="white"/>
<path d="M182.138 3.15509H189.211L187.514 16.4074H200L199.606 19.5158H180.047L182.15 3.15509H182.138Z" fill="white"/>
</g>
<defs>
<clipPath id="clip0_2104_8349">
<rect width="200" height="83.8323" fill="white" transform="translate(0 0.699219)"/>
</clipPath>
</defs>
</svg>
